# xmcd
#
# Track frame offsets: 
#        150
#        12207
#        24140
#        35945
#        45746
#        58690
#        68897
#        81787
#        96036
#        108588
#        120300
#        132488
#        144284
#        156220
#        167958
#        180501
#        191310
#        202871
#        216602
#        226133
#
# Disc length: 3180 seconds
#
# Revision: 0
# Processed by: cddbd v1.5.2PL0 Copyright (c) Steve Scherf et al.
# Submitted via: ExactAudioCopy v1.1
#
DISCID=0f0c6a14
DTITLE=Various Artist - Country Gold Volume 1
DYEAR=2010
DGENRE=Classic Country
TTITLE0=Hank Williams - Your Cheatin' Heart
TTITLE1=Frankie Laine - High Noon (Do Not Forsake Me)
TTITLE2=Kitty Wells - It Wasn't God Who Made Honky Tonk Angels
TTITLE3=Eddie Arnold - I Wanna Play House With You
TTITLE4=Tex Williams - Smoke! Smoke! Smoke! That Cigarette
TTITLE5=Les Paul and Mary Ford - Mockin' Bird Hill
TTITLE6=Hank Williams - Jambalaya
TTITLE7=Red Foley - Peace In The Valley
TTITLE8=Al Dexter - Pistol Packin' Mama
TTITLE9=Bob Willis and His Texas Playboys - New San Antonio Rose
TTITLE10=Hank Williams - Lovesick Blues
TTITLE11=Ernest Tubb - Walking The Floor Over You
TTITLE12=Evelyn Knight - A Little Bird Told Me
TTITLE13=Gene Autry - That Silver Haired Daddy Of Mine
TTITLE14=Hank Snow - I'm Moving On
TTITLE15=Hank Thompson - Humpty Dumpty Heart
TTITLE16=Eddie Arnold (And His Tennessee Plowboys) - All Alone In This
TTITLE16=World Without You
TTITLE17=Lonnie Johnson - Tomorrow Night
TTITLE18=Frankie Laine - I Believe
TTITLE19=Hank Williams - Cold, Cold Heart
EXTD=
EXTT0=
EXTT1=
EXTT2=
EXTT3=
EXTT4=
EXTT5=
EXTT6=
EXTT7=
EXTT8=
EXTT9=
EXTT10=
EXTT11=
EXTT12=
EXTT13=
EXTT14=
EXTT15=
EXTT16=
EXTT17=
EXTT18=
EXTT19=
PLAYORDER=
